# Blender v2.74 (sub 0) OBJ File: ''
# www.blender.org
mtllib mc-grass-block.mtl
o Box
v 0.500000 0.500000 0.500000
v 0.500000 0.500000 -0.500000
v 0.500000 -0.500000 0.500000
v 0.500000 -0.500000 -0.500000
v -0.500000 0.500000 -0.500000
v -0.500000 0.500000 0.500000
v -0.500000 -0.500000 -0.500000
v -0.500000 -0.500000 0.500000
vt 0.000000 1.000000
vt 0.000000 0.000000
vt 1.000000 0.000000
vt 1.000000 1.000000
vn 1.000000 0.000000 0.000000
vn -1.000000 0.000000 0.000000
vn 0.000000 0.000000 1.000000
vn 0.000000 0.000000 -1.000000
vn 0.000000 1.000000 0.000000
vn 0.000000 -1.000000 0.000000
usemtl Grass2
s 1
f 1/1/1 3/2/1 4/3/1 2/4/1
f 5/1/2 7/2/2 8/3/2 6/4/2
f 6/1/3 8/2/3 3/3/3 1/4/3
f 2/1/4 4/2/4 7/3/4 5/4/4
usemtl Grass4
f 5/1/5 6/2/5 1/3/5 2/4/5
usemtl Grass3
f 8/1/6 7/2/6 4/3/6 3/4/6
